<?xml version="1.0" encoding="iso-8859-1"?>
<!-- Generator: Adobe Illustrator 19.0.0, SVG Export Plug-In . SVG Version: 6.00 Build 0)  -->
<svg xmlns="http://www.w3.org/2000/svg" xmlns:xlink="http://www.w3.org/1999/xlink" version="1.1"
    id="Layer_1" x="0px" y="0px" viewBox="0 0 512 512" style="enable-background:new 0 0 512 512;"
    xml:space="preserve">
<circle style="fill:#FFF082;" cx="350.063" cy="337.236" r="153.921"/>
<circle style="fill:#FF507D;" cx="161.937" cy="337.236" r="153.921"/>
<path style="fill:#D23C69;" d="M196.142,337.236c0,49.541,23.502,93.494,59.858,121.648c36.356-28.154,59.858-72.106,59.858-121.648  c0-49.541-23.502-93.495-59.858-121.649C219.644,243.741,196.142,287.695,196.142,337.236z"/>
<circle style="fill:#82D7FF;" cx="256" cy="174.764" r="153.921"/>
<path style="fill:#B4E66E;" d="M197.602,317.143c18.016,7.398,37.715,11.542,58.398,11.542c78.181,0,142.595-58.338,152.461-133.828  c-18.016-7.399-37.715-11.542-58.398-11.542C271.882,183.315,207.468,241.653,197.602,317.143z"/>
<path style="fill:#5050FF;" d="M103.539,194.857c9.866,75.49,74.28,133.828,152.461,133.828c20.683,0,40.382-4.143,58.398-11.542  c-9.866-75.49-74.28-133.828-152.461-133.828C141.254,183.315,121.556,187.458,103.539,194.857z"/>
<path style="fill:#464655;" d="M197.611,317.083c18.012,7.414,37.691,11.602,58.389,11.602c20.683,0,40.382-4.143,58.398-11.542  c-5.389-41.232-27.124-77.256-58.413-101.545C224.662,239.861,203.014,275.871,197.611,317.083z"/>
<path d="M417.227,189.872c0.463-4.976,0.711-10.013,0.711-15.108c0-89.293-72.644-161.937-161.937-161.937  S94.063,85.471,94.063,174.764c0,5.046,0.237,10.118,0.702,15.138C38.905,215.471,0,271.892,0,337.236  c0,89.293,72.644,161.937,161.937,161.937c34.146,0,66.566-10.411,94.119-30.153c26.522,18.973,58.982,30.153,94.006,30.153  c89.293,0,161.937-72.644,161.937-161.937C512,273.623,474.91,216.181,417.227,189.872z M110.096,174.764  C110.096,94.313,175.549,28.86,256,28.86s145.904,65.453,145.904,145.904c0,57.213-33.106,106.829-81.162,130.727  c-7.053-35.337-25.64-66.557-51.658-89.564c23.184-15.527,51.041-24.595,80.978-24.595c7.827,0,15.682,0.624,23.346,1.857  c4.371,0.702,8.485-2.271,9.187-6.642c0.703-4.372-2.271-8.485-6.642-9.187c-8.502-1.368-17.213-2.061-25.891-2.061  c-35.049,0-67.53,11.197-94.063,30.195c-26.533-18.999-59.014-30.195-94.063-30.195c-18.022,0-35.364,2.963-51.57,8.421  C110.188,180.738,110.096,177.746,110.096,174.764z M256,225.797c25.568,21.615,43.627,51.843,49.646,86.169  c-15.504,5.627-32.222,8.702-49.646,8.702c-17.135,0-33.875-2.953-49.652-8.662C212.359,277.664,230.422,247.42,256,225.797z   M161.937,483.14c-80.451,0-145.904-65.453-145.904-145.904s65.453-145.904,145.904-145.904c29.938,0,57.794,9.068,80.977,24.595  c-26.032,23.02-44.626,54.262-51.668,89.624c-6.52-3.238-12.827-6.975-18.869-11.208c-24.038-16.844-42.263-40.173-52.704-67.47  c-1.581-4.136-6.218-6.206-10.351-4.624c-4.136,1.581-6.206,6.216-4.624,10.351c11.588,30.296,31.809,56.185,58.478,74.873  c8.151,5.711,16.74,10.6,25.657,14.674c-0.461,4.971-0.708,10.002-0.708,15.09c0,48.268,21.235,91.663,54.843,121.357  C218.982,474.681,191.162,483.14,161.937,483.14z M350.063,483.14c-80.451,0-145.904-65.453-145.904-145.904  c0-3,0.102-5.977,0.281-8.934c16.467,5.526,33.821,8.399,51.56,8.399c18.018,0,35.357-2.962,51.558-8.418  c0.181,2.962,0.283,5.945,0.283,8.952c0,33.535-11.657,66.282-32.824,92.207c-2.801,3.429-2.29,8.48,1.139,11.28  c3.429,2.801,8.48,2.29,11.28-1.139c23.497-28.78,36.438-65.128,36.438-102.348c0-5.103-0.249-10.149-0.713-15.133  c46.59-21.322,81.38-64.107,91.65-115.631c49.544,24.539,81.155,75.021,81.155,130.764  C495.967,417.687,430.514,483.14,350.063,483.14z"/>
<g>
</g>
<g>
</g>
<g>
</g>
<g>
</g>
<g>
</g>
<g>
</g>
<g>
</g>
<g>
</g>
<g>
</g>
<g>
</g>
<g>
</g>
<g>
</g>
<g>
</g>
<g>
</g>
<g>
</g>
</svg>